<svg xmlns="http://www.w3.org/2000/svg" width="28" height="21" viewBox="0 0 28 21">
  <path id="delete_2_" data-name="delete (2)" d="M25.376,53.529H9.58a2.617,2.617,0,0,0-2.033.963L.2,63.475a.875.875,0,0,0,0,1.107l7.35,8.984a2.616,2.616,0,0,0,2.032.962h15.8A2.628,2.628,0,0,0,28,71.9V56.154a2.628,2.628,0,0,0-2.625-2.625ZM21.363,67.167l-2.475,2.475L15.751,66.5l-3.138,3.138-2.475-2.475,3.138-3.138-3.138-3.138,2.475-2.475,3.138,3.138,3.138-3.138,2.475,2.475-3.138,3.138Z" transform="translate(0 -53.529)" fill="#393939"/>
</svg>
